<svg width="61" height="66" viewBox="0 0 61 66" fill="none" xmlns="http://www.w3.org/2000/svg">
<path d="M59.6803 16.101L30.9024 0.171661C30.6383 0.0261128 30.3202 0.0261128 30.0561 0.171661L1.27824 16.101C1.00062 16.2546 0.828125 16.5457 0.828125 16.8638V48.7225C0.828125 49.0405 1.00062 49.3316 1.27824 49.4853L30.0561 65.4146C30.3202 65.5602 30.6383 65.5602 30.9024 65.4146L59.6803 49.4853C59.9579 49.3316 60.1304 49.0406 60.1304 48.7225V16.8638C60.1304 16.5457 59.9579 16.2547 59.6803 16.101ZM29.6032 63.1666L2.57447 48.2046V18.3483L29.6059 33.3075L29.6032 63.1666ZM30.4791 31.793L3.50701 16.8635L30.4791 1.93392L57.4512 16.8635L30.4791 31.793ZM58.3834 48.2046L31.352 63.1666V33.3082L58.3806 18.3463L58.3834 48.2046Z" fill="#323069"/>
</svg>
